<svg width="221" height="55" viewBox="0 0 221 55" fill="none" xmlns="http://www.w3.org/2000/svg">
<g clip-path="url(#clip0_1703_8358)">
<path fill-rule="evenodd" clip-rule="evenodd" d="M0.0737544 29.8658C0.0368766 29.169 0 28.4721 0 27.7386C0 23.9611 0.774435 20.4034 2.13891 17.1392C2.39706 16.5157 2.87647 16.0756 3.50339 15.8189C4.13031 15.5622 4.79411 15.5988 5.42103 15.8923L18.4389 22.1639C20.0984 22.9707 21.0203 24.6944 20.7253 26.5283C20.4303 28.3621 19.0289 29.7192 17.185 29.9758L2.8027 32.0298C2.10203 32.1398 1.47511 31.9564 0.958822 31.5163C0.405655 31.1128 0.110632 30.5627 0.0737544 29.8658ZM6.85927 14.2785L19.0289 20.1467C20.2459 20.7335 21.5734 20.7335 22.7905 20.0733C24.0075 19.4498 24.7819 18.3496 24.9662 16.9925L26.9945 3.23903C27.1052 2.46885 26.8839 1.77199 26.3308 1.22185C25.7775 0.671714 25.0769 0.414982 24.3025 0.52501C16.9269 1.36856 10.4364 5.10951 6.01108 10.5742C5.53167 11.1611 5.38416 11.8579 5.53167 12.5914C5.71605 13.3983 6.15859 13.9484 6.85927 14.2785ZM31.9361 0.745064C39.9017 2.02873 46.7241 6.72325 50.8544 13.2883C51.3708 14.1318 51.3339 15.1587 50.7437 15.9656L42.225 27.5552C41.0081 29.169 38.8692 29.7192 37.0253 28.8388L28.8384 24.9146C27.1789 24.1077 26.257 22.4206 26.552 20.5868L29.1703 2.76224C29.2809 2.10208 29.5759 1.55194 30.1291 1.18518C30.6455 0.781741 31.2723 0.635037 31.9361 0.745064ZM54.2472 21.4304C54.0259 20.5134 53.3253 19.8167 52.3664 19.6332C51.4077 19.4498 50.5225 19.7799 49.9325 20.5868L44.9909 27.2985C44.2533 28.3255 43.9952 29.4991 44.327 30.746C44.622 31.993 45.3966 32.91 46.5397 33.4601L50.8912 35.5507C51.592 35.8807 52.2927 35.8807 52.9933 35.5507C53.6941 35.2206 54.1366 34.6703 54.3209 33.9369C54.8003 31.9564 55.0216 29.8658 55.0216 27.7386C54.9847 25.5748 54.7266 23.4476 54.2472 21.4304ZM51.5552 40.9787C47.2036 48.754 39.1642 54.2186 29.7972 54.9889C29.0228 55.0622 28.3222 54.7689 27.8058 54.2186C27.2895 53.6685 27.0683 52.935 27.2158 52.2014C27.3264 51.5781 27.5845 50.9912 27.9902 50.4411L38.7586 35.7707C39.9755 34.157 42.1144 33.6067 43.9583 34.4871L50.5225 37.6411C51.1495 37.9345 51.5552 38.4114 51.7764 39.0715C51.9608 39.7317 51.887 40.3918 51.5552 40.9787ZM20.7253 54.2554C21.6841 54.5121 22.6798 54.1454 23.2698 53.3384L35.9927 36.0641C36.7303 35.0372 36.9884 33.8635 36.6566 32.6165C36.3983 31.5895 35.8083 30.746 34.9233 30.1592C34.407 29.8292 33.8537 29.7192 33.2638 29.7924L3.72466 34.0102C3.65091 34.0102 3.57714 34.047 3.50339 34.047C2.76583 34.1936 2.21267 34.5971 1.84389 35.2206C1.47511 35.8439 1.43823 36.5409 1.69638 37.2378C4.79411 45.5998 11.9115 52.0548 20.7253 54.2554Z" fill="#732F37"/>
<path d="M69.509 20.843C68.6964 20.843 68.0677 21.0653 67.623 21.51C67.1784 21.9546 66.956 22.4913 66.956 23.12C66.956 23.7026 67.1477 24.201 67.531 24.615C67.9144 25.0136 68.3974 25.3893 68.98 25.742C69.5627 26.0946 70.1914 26.4473 70.866 26.8C71.5407 27.1373 72.1694 27.536 72.752 27.996C73.3347 28.4406 73.8177 28.9696 74.201 29.583C74.5844 30.181 74.776 30.917 74.776 31.791C74.776 32.4196 74.6457 33.01 74.385 33.562C74.1397 34.0986 73.7794 34.5663 73.304 34.965C72.8287 35.3636 72.246 35.6856 71.556 35.931C70.866 36.161 70.084 36.276 69.21 36.276C68.5507 36.276 67.784 36.1916 66.91 36.023C66.036 35.8696 65.1697 35.586 64.311 35.172L64.978 33.493C65.714 33.8303 66.4347 34.068 67.14 34.206C67.8454 34.344 68.474 34.413 69.026 34.413C69.532 34.413 69.9844 34.344 70.383 34.206C70.7817 34.068 71.119 33.884 71.395 33.654C71.671 33.4086 71.8857 33.125 72.039 32.803C72.1924 32.481 72.269 32.136 72.269 31.768C72.269 31.1393 72.0774 30.6103 71.694 30.181C71.3107 29.7516 70.8277 29.3683 70.245 29.031C69.6777 28.6783 69.0567 28.341 68.382 28.019C67.7227 27.6816 67.1017 27.306 66.519 26.892C65.9517 26.4626 65.4764 25.9566 65.093 25.374C64.7097 24.7913 64.518 24.0706 64.518 23.212C64.518 22.5833 64.633 22.0083 64.863 21.487C65.1084 20.9656 65.4457 20.521 65.875 20.153C66.3044 19.785 66.8104 19.5013 67.393 19.302C67.9757 19.0873 68.612 18.98 69.302 18.98C69.9767 18.98 70.6437 19.0336 71.303 19.141C71.9624 19.2483 72.7137 19.4323 73.557 19.693L72.867 21.349C72.1924 21.1496 71.5714 21.0193 71.004 20.958C70.452 20.8813 69.9537 20.843 69.509 20.843Z" fill="#732F37"/>
<path d="M84.7476 19.279H87.2086L93.2346 36H90.5666L86.0586 22.821L85.8976 22.108L85.7136 22.844L83.3216 29.813L83.0686 30.273L83.3446 30.227H86.0586C86.3499 30.227 86.6029 30.2806 86.8176 30.388C87.0476 30.4953 87.2469 30.641 87.4156 30.825C87.5843 30.9936 87.7223 31.193 87.8296 31.423C87.9523 31.6376 88.0519 31.86 88.1286 32.09H82.5626L81.2286 36H78.7446L84.7476 19.279Z" fill="#732F37"/>
<path d="M103.522 26.317H106.972V28.134H101.452C101.528 27.904 101.62 27.6816 101.728 27.467C101.85 27.2523 101.996 27.0606 102.165 26.892C102.333 26.7233 102.525 26.5853 102.74 26.478C102.97 26.3706 103.23 26.317 103.522 26.317ZM98.0707 36V19.279H107.754V21.142H100.578V36H98.0707Z" fill="#732F37"/>
<path d="M118.844 26.317H122.294V28.134H116.774C116.85 27.904 116.942 27.6816 117.05 27.467C117.172 27.2523 117.318 27.0606 117.487 26.892C117.655 26.7233 117.847 26.5853 118.062 26.478C118.292 26.3706 118.552 26.317 118.844 26.317ZM113.393 36V19.279H123.076V21.142H115.9V34.137H123.421V36H113.393Z" fill="#732F37"/>
<path d="M134.784 29.836H127.838V28.134H134.784V29.836Z" fill="#732F37"/>
<path d="M139.499 36V19.279H142.029V34.114H148.745C148.745 34.4206 148.738 34.735 148.722 35.057C148.722 35.379 148.722 35.6933 148.722 36H139.499Z" fill="#732F37"/>
<path d="M156.047 19.279V36H153.609V19.279H156.047Z" fill="#732F37"/>
<path d="M168.864 36H166.265L160.4 19.279H163.091L167.438 32.711L167.599 33.493L167.76 32.734L172.084 19.279H174.683L168.864 36Z" fill="#732F37"/>
<path d="M181.367 19.279V36H178.929V19.279H181.367Z" fill="#732F37"/>
<path d="M198.278 36C196.929 33.838 195.58 31.699 194.23 29.583C192.896 27.4516 191.555 25.2973 190.205 23.12L189.86 22.315L189.906 23.097V36H187.767V19.279H190.251L197.22 30.434L198.048 31.745L198.347 32.55L198.301 31.722V19.279H200.509V36H198.278Z" fill="#732F37"/>
<path d="M214.559 20.866C213.731 20.866 212.949 21.0193 212.213 21.326C211.477 21.6173 210.825 22.0543 210.258 22.637C209.706 23.2196 209.269 23.9326 208.947 24.776C208.625 25.6193 208.464 26.5776 208.464 27.651C208.464 28.709 208.625 29.6596 208.947 30.503C209.269 31.3463 209.706 32.0593 210.258 32.642C210.81 33.2093 211.454 33.6463 212.19 33.953C212.926 34.2596 213.708 34.413 214.536 34.413C214.873 34.413 215.241 34.3976 215.64 34.367C216.054 34.321 216.506 34.2213 216.997 34.068V28.249H219.366V35.149C218.538 35.5783 217.687 35.8696 216.813 36.023C215.954 36.1916 215.195 36.276 214.536 36.276C213.294 36.276 212.136 36.0766 211.063 35.678C209.989 35.264 209.062 34.6813 208.28 33.93C207.498 33.1786 206.884 32.274 206.44 31.216C205.995 30.1426 205.773 28.9543 205.773 27.651C205.773 26.3783 205.995 25.213 206.44 24.155C206.9 23.097 207.521 22.1846 208.303 21.418C209.085 20.6513 210.012 20.0533 211.086 19.624C212.159 19.1946 213.317 18.98 214.559 18.98C215.218 18.98 215.946 19.0566 216.744 19.21C217.556 19.348 218.377 19.6086 219.205 19.992L218.538 21.694C217.694 21.3413 216.951 21.119 216.307 21.027C215.678 20.9196 215.095 20.866 214.559 20.866Z" fill="#732F37"/>
</g>
<defs>
<clipPath id="clip0_1703_8358">
<rect width="221" height="55" fill="white"/>
</clipPath>
</defs>
</svg>
