<svg width="517" height="500" viewBox="0 0 517 500" fill="none" xmlns="http://www.w3.org/2000/svg">
<path fill-rule="evenodd" clip-rule="evenodd" d="M0.782831 242.201C0.391409 235.055 0 227.907 0 220.383C0 181.637 8.21986 145.147 22.7024 111.667C25.4425 105.272 30.5309 100.757 37.1851 98.1242C43.8392 95.4908 50.8848 95.8671 57.5389 98.8766L195.711 163.204C213.325 171.479 223.11 189.159 219.979 207.97C216.848 226.778 201.973 240.697 182.402 243.33L29.7479 264.397C22.311 265.526 15.6569 263.644 10.177 259.13C4.30563 254.992 1.17425 249.35 0.782831 242.201ZM72.8044 82.3246L201.973 142.514C214.891 148.532 228.981 148.532 241.899 141.761C254.816 135.366 263.035 124.081 264.992 110.162L286.521 -30.9061C287.695 -38.8058 285.346 -45.9533 279.476 -51.596C273.603 -57.2387 266.167 -59.872 257.947 -58.7435C179.662 -50.0913 110.772 -11.7208 63.8017 44.3302C58.7133 50.3491 57.1476 57.4966 58.7133 65.0202C60.6702 73.2962 65.3675 78.939 72.8044 82.3246ZM338.97 -56.4864C423.518 -43.3201 495.93 4.83115 539.769 72.1676C545.251 80.8198 544.859 91.353 538.595 99.6288L448.177 218.501C435.261 235.055 412.559 240.697 392.988 231.668L306.092 191.418C288.477 183.141 278.693 165.837 281.824 147.028L309.614 -35.7964C310.789 -42.5677 313.92 -48.2104 319.79 -51.9722C325.272 -56.1102 331.925 -57.6149 338.97 -56.4864ZM575.781 155.68C573.432 146.275 565.996 139.129 555.818 137.247C545.642 135.366 536.247 138.751 529.985 147.028L477.535 215.869C469.705 226.403 466.965 238.44 470.488 251.229C473.619 264.02 481.84 273.425 493.973 279.067L540.161 300.51C547.599 303.896 555.035 303.896 562.472 300.51C569.91 297.125 574.607 291.481 576.564 283.959C581.652 263.644 584 242.201 584 220.383C583.609 198.189 580.869 176.37 575.781 155.68ZM547.208 356.185C501.02 435.935 415.69 491.985 316.268 499.886C308.049 500.637 300.612 497.629 295.131 491.985C289.652 486.343 287.303 478.819 288.869 471.295C290.043 464.902 292.783 458.882 297.088 453.24L411.385 302.767C424.3 286.216 447.003 280.571 466.574 289.601L536.247 321.951C542.902 324.961 547.208 329.853 549.556 336.623C551.513 343.394 550.73 350.165 547.208 356.185ZM219.979 492.362C230.155 494.995 240.724 491.234 246.987 482.957L382.027 305.777C389.856 295.243 392.596 283.206 389.074 270.415C386.332 259.881 380.07 251.229 370.676 245.211C365.197 241.826 359.324 240.697 353.062 241.448L39.5336 284.71C38.7508 284.71 37.9678 285.087 37.1851 285.087C29.3566 286.591 23.4854 290.73 19.5711 297.125C15.6569 303.518 15.2654 310.667 18.0054 317.815C50.8848 403.583 126.429 469.791 219.979 492.362Z" fill="#F9F7F7"/>
</svg>
