<svg width="35" height="36" viewBox="0 0 35 36" fill="none" xmlns="http://www.w3.org/2000/svg">
<path fill-rule="evenodd" clip-rule="evenodd" d="M0.0469163 19.18C0.0234577 18.7368 0 18.2935 0 17.8269C0 15.4239 0.492629 13.1608 1.36059 11.0845C1.52481 10.6878 1.82976 10.4079 2.22856 10.2446C2.62735 10.0813 3.0496 10.1046 3.4484 10.2912L11.7293 14.2807C12.7849 14.7939 13.3713 15.8904 13.1837 17.057C12.996 18.2235 12.1046 19.0867 10.9316 19.25L1.78284 20.5565C1.33713 20.6265 0.938339 20.5098 0.60992 20.2299C0.258043 19.9733 0.0703748 19.6233 0.0469163 19.18ZM4.36328 9.26471L12.1046 12.9976C12.8787 13.3708 13.7232 13.3708 14.4973 12.9509C15.2715 12.5543 15.7641 11.8544 15.8814 10.9911L17.1716 2.24234C17.242 1.75241 17.1012 1.30913 16.7494 0.959182C16.3974 0.60923 15.9518 0.445919 15.4592 0.515909C10.7674 1.0525 6.63875 3.43217 3.82373 6.90837C3.51878 7.28165 3.42494 7.72492 3.51878 8.19153C3.63606 8.70479 3.91757 9.05474 4.36328 9.26471ZM20.315 0.655889C25.3821 1.47244 29.7218 4.4587 32.3492 8.63479C32.6777 9.17139 32.6542 9.82464 32.2788 10.3379L26.8599 17.7102C26.0859 18.7368 24.7253 19.0867 23.5523 18.5267L18.3445 16.0305C17.2889 15.5172 16.7025 14.444 16.8901 13.2775L18.5557 1.93905C18.626 1.5191 18.8137 1.16915 19.1655 0.935851C19.494 0.67922 19.8928 0.585899 20.315 0.655889ZM34.5074 13.8141C34.3667 13.2308 33.921 12.7876 33.311 12.6709C32.7011 12.5543 32.1381 12.7642 31.7628 13.2775L28.6194 17.5469C28.1501 18.2002 27.9859 18.9467 28.1971 19.7399C28.3847 20.5331 28.8774 21.1164 29.6046 21.4664L32.3726 22.7962C32.8184 23.0062 33.2641 23.0062 33.7098 22.7962C34.1556 22.5863 34.437 22.2362 34.5543 21.7697C34.8593 20.5099 35 19.18 35 17.8269C34.9765 16.4504 34.8123 15.0973 34.5074 13.8141ZM32.795 26.2491C30.0269 31.195 24.9129 34.6712 18.9544 35.1612C18.4618 35.2078 18.0162 35.0212 17.6877 34.6712C17.3593 34.3212 17.2185 33.8546 17.3123 33.388C17.3827 32.9915 17.5469 32.6182 17.8049 32.2682L24.6549 22.9362C25.429 21.9097 26.7896 21.5596 27.9625 22.1196L32.1381 24.126C32.537 24.3126 32.795 24.616 32.9357 25.0359C33.053 25.4558 33.0061 25.8757 32.795 26.2491ZM13.1837 34.6946C13.7935 34.8578 14.427 34.6246 14.8023 34.1113L22.8954 23.1229C23.3647 22.4696 23.5289 21.723 23.3178 20.9298C23.1535 20.2765 22.7782 19.7399 22.2152 19.3667C21.8868 19.1567 21.5349 19.0867 21.1595 19.1333L2.36931 21.8163C2.32239 21.8163 2.27547 21.8397 2.22856 21.8397C1.75938 21.933 1.40751 22.1896 1.17293 22.5863C0.938339 22.9828 0.91488 23.4261 1.07909 23.8694C3.0496 29.1886 7.57709 33.2947 13.1837 34.6946Z" fill="#732F37"/>
</svg>
