<svg width="16" height="17" viewBox="0 0 16 17" fill="none" xmlns="http://www.w3.org/2000/svg">
<path d="M8 2C6.27609 2 4.62279 2.68482 3.40381 3.90381C2.18482 5.1228 1.5 6.7761 1.5 8.5C1.5 8.69892 1.42098 8.88968 1.28033 9.03033C1.13968 9.17099 0.948912 9.25 0.75 9.25C0.551088 9.25 0.360322 9.17099 0.21967 9.03033C0.0790175 8.88968 4.19177e-09 8.69892 0 8.5C0 6.91775 0.469192 5.37103 1.34824 4.05544C2.22729 2.73985 3.47672 1.71447 4.93853 1.10897C6.40034 0.503466 8.00887 0.34504 9.56072 0.653721C11.1126 0.962403 12.538 1.72433 13.6569 2.84315C14.7757 3.96197 15.5376 5.38743 15.8463 6.93928C16.155 8.49113 15.9965 10.0997 15.391 11.5615C14.7855 13.0233 13.7602 14.2727 12.4446 15.1518C11.129 16.0308 9.58225 16.5 8 16.5C7.80109 16.5 7.61032 16.421 7.46967 16.2803C7.32902 16.1397 7.25 15.9489 7.25 15.75C7.25 15.5511 7.32902 15.3603 7.46967 15.2197C7.61032 15.079 7.80109 15 8 15C9.72391 15 11.3772 14.3152 12.5962 13.0962C13.8152 11.8772 14.5 10.2239 14.5 8.5C14.5 6.7761 13.8152 5.1228 12.5962 3.90381C11.3772 2.68482 9.72391 2 8 2Z" fill="white"/>
</svg>
